# xmcd
#
# Track frame offsets:
#	150
#	13730
#	33245
#	56660
#	72033
#	92989
#	106771
#	123633
#	140379
#	159992
#	174765
#	194168
#	216006
#	238593
#
# Disc length: 3408 seconds
#
# Revision: 0
# Processed by: cddbd v1.4PL0 Copyright (c) Steve Scherf et al.
# Submitted via: EasyCDDAExtractor 4.5.0.2
#
DISCID=bd0d4e0e
DTITLE=Collective Soul
DYEAR=1900
DGENRE=
TTITLE0=Heavy
TTITLE1=She Said
TTITLE2=Shine
TTITLE3=Energy
TTITLE4=Run
TTITLE5=Gel
TTITLE6=Precious Declaration
TTITLE7=Why P.T2
TTITLE8=The World I Know
TTITLE9=Next Homecoming
TTITLE10=Listen
TTITLE11=December
TTITLE12=Forgiveness
TTITLE13=After All
EXTD=
EXTT0=
EXTT1=
EXTT2=
EXTT3=
EXTT4=
EXTT5=
EXTT6=
EXTT7=
EXTT8=
EXTT9=
EXTT10=
EXTT11=
EXTT12=
EXTT13=
PLAYORDER=
